# Wavefront OBJ file automatically generated by Tiled2Unity

# Vertices (Count = 72)
v -128 -32 0
v -144 -32 0
v -144 -16 0
v -128 -16 0
v -112 -32 0
v -112 -16 0
v -96 -32 0
v -96 -16 0
v -80 -32 0
v -80 -16 0
v -64 -32 0
v -64 -16 0
v -48 -32 0
v -48 -16 0
v -32 -32 0
v -32 -16 0
v -16 -32 0
v -16 -16 0
v 0 -32 0
v 0 -16 0
v -128 -48 0
v -144 -48 0
v -112 -48 0
v -96 -48 0
v -80 -48 0
v -64 -48 0
v -48 -48 0
v -32 -48 0
v -16 -48 0
v 0 -48 0
v -128 -64 0
v -144 -64 0
v -112 -64 0
v -96 -64 0
v -80 -64 0
v -64 -64 0
v -48 -64 0
v -32 -64 0
v -16 -64 0
v 0 -64 0
v -128 -80 0
v -144 -80 0
v -112 -80 0
v -96 -80 0
v -80 -80 0
v -64 -80 0
v -48 -80 0
v -32 -80 0
v -16 -80 0
v 0 -80 0
v -128 -96 0
v -144 -96 0
v -112 -96 0
v -96 -96 0
v -80 -96 0
v -64 -96 0
v -48 -96 0
v -32 -96 0
v -16 -96 0
v 0 -96 0
v -64 -112 0
v -80 -112 0
v -144 0 0
v -128 0 0
v -112 0 0
v -96 0 0
v -80 0 0
v -64 0 0
v -48 0 0
v -32 0 0
v -16 0 0
v 0 0 0

# Texture cooridinates (Count = 68)
vt 0.3336797 0.4847946
vt 0.3502046 0.4847946
vt 0.3502046 0.5152054
vt 0.3336797 0.5152054
vt 0.3161177 0.4847946
vt 0.3326426 0.4847946
vt 0.3326426 0.5152054
vt 0.3161177 0.5152054
vt 0.2985557 0.4847946
vt 0.3150806 0.4847946
vt 0.3150806 0.5152054
vt 0.2985557 0.5152054
vt 0.2809938 0.4847946
vt 0.2975186 0.4847946
vt 0.2975186 0.5152054
vt 0.2809938 0.5152054
vt 0.2283078 0.4847946
vt 0.2448327 0.4847946
vt 0.2448327 0.5152054
vt 0.2283078 0.5152054
vt 0.2458698 0.4847946
vt 0.2623947 0.4847946
vt 0.2623947 0.5152054
vt 0.2458698 0.5152054
vt 0.08781193 0.4201558
vt 0.1043368 0.4201558
vt 0.1043368 0.4505666
vt 0.08781193 0.4505666
vt 0.3688037 0.2908782
vt 0.3853286 0.2908782
vt 0.3853286 0.3212891
vt 0.3688037 0.3212891
vt 0.4390516 0.2908782
vt 0.4555765 0.2908782
vt 0.4555765 0.3212891
vt 0.4390516 0.3212891
vt 0.3512417 0.2908782
vt 0.3677666 0.2908782
vt 0.3677666 0.3212891
vt 0.3512417 0.3212891
vt 0.3688037 0.2585589
vt 0.3853286 0.2585589
vt 0.3853286 0.2889697
vt 0.3688037 0.2889697
vt 0.4390516 0.2262394
vt 0.4555765 0.2262394
vt 0.4555765 0.2566503
vt 0.4390516 0.2566503
vt 0.3512417 0.2585589
vt 0.3677666 0.2585589
vt 0.3677666 0.2889697
vt 0.3512417 0.2889697
vt 0.3688037 0.2262394
vt 0.3853286 0.2262394
vt 0.3853286 0.2566503
vt 0.3688037 0.2566503
vt 0.3512417 0.2262394
vt 0.3677666 0.2262394
vt 0.3677666 0.2566503
vt 0.3512417 0.2566503
vt 0.7024813 0.9695855
vt 0.7190062 0.9695855
vt 0.7190062 0.9999963
vt 0.7024813 0.9999963
vt 0.6322334 0.9372661
vt 0.6487583 0.9372661
vt 0.6487583 0.9676769
vt 0.6322334 0.9676769

# Normal
vn 0 0 -1

# Groups (Count = 2)

g mesh_0001
f 1/1/1 2/2/1 3/3/1 4/4/1
f 5/5/1 1/6/1 4/7/1 6/8/1
f 7/5/1 5/6/1 6/7/1 8/8/1
f 9/5/1 7/6/1 8/7/1 10/8/1
f 11/5/1 9/6/1 10/7/1 12/8/1
f 13/5/1 11/6/1 12/7/1 14/8/1
f 15/5/1 13/6/1 14/7/1 16/8/1
f 17/5/1 15/6/1 16/7/1 18/8/1
f 19/9/1 17/10/1 18/11/1 20/12/1
f 21/1/1 22/2/1 2/3/1 1/4/1
f 23/5/1 21/6/1 1/7/1 5/8/1
f 24/5/1 23/6/1 5/7/1 7/8/1
f 25/5/1 24/6/1 7/7/1 9/8/1
f 26/5/1 25/6/1 9/7/1 11/8/1
f 27/5/1 26/6/1 11/7/1 13/8/1
f 28/5/1 27/6/1 13/7/1 15/8/1
f 29/5/1 28/6/1 15/7/1 17/8/1
f 30/9/1 29/10/1 17/11/1 19/12/1
f 31/1/1 32/2/1 22/3/1 21/4/1
f 33/5/1 31/6/1 21/7/1 23/8/1
f 34/5/1 33/6/1 23/7/1 24/8/1
f 35/5/1 34/6/1 24/7/1 25/8/1
f 36/5/1 35/6/1 25/7/1 26/8/1
f 37/5/1 36/6/1 26/7/1 27/8/1
f 38/5/1 37/6/1 27/7/1 28/8/1
f 39/5/1 38/6/1 28/7/1 29/8/1
f 40/9/1 39/10/1 29/11/1 30/12/1
f 41/1/1 42/2/1 32/3/1 31/4/1
f 43/5/1 41/6/1 31/7/1 33/8/1
f 44/5/1 43/6/1 33/7/1 34/8/1
f 45/5/1 44/6/1 34/7/1 35/8/1
f 46/5/1 45/6/1 35/7/1 36/8/1
f 47/5/1 46/6/1 36/7/1 37/8/1
f 48/5/1 47/6/1 37/7/1 38/8/1
f 49/5/1 48/6/1 38/7/1 39/8/1
f 50/9/1 49/10/1 39/11/1 40/12/1
f 51/13/1 52/14/1 42/15/1 41/16/1
f 53/17/1 51/18/1 41/19/1 43/20/1
f 54/17/1 53/18/1 43/19/1 44/20/1
f 55/17/1 54/18/1 44/19/1 45/20/1
f 56/17/1 55/18/1 45/19/1 46/20/1
f 57/17/1 56/18/1 46/19/1 47/20/1
f 58/17/1 57/18/1 47/19/1 48/20/1
f 59/17/1 58/18/1 48/19/1 49/20/1
f 60/21/1 59/22/1 49/23/1 50/24/1
f 61/25/1 62/26/1 55/27/1 56/28/1

g mesh_0002
f 4/29/1 3/30/1 63/31/1 64/32/1
f 6/33/1 4/34/1 64/35/1 65/36/1
f 8/33/1 6/34/1 65/35/1 66/36/1
f 10/33/1 8/34/1 66/35/1 67/36/1
f 12/33/1 10/34/1 67/35/1 68/36/1
f 14/33/1 12/34/1 68/35/1 69/36/1
f 16/33/1 14/34/1 69/35/1 70/36/1
f 18/33/1 16/34/1 70/35/1 71/36/1
f 20/37/1 18/38/1 71/39/1 72/40/1
f 1/41/1 2/42/1 3/43/1 4/44/1
f 5/45/1 1/46/1 4/47/1 6/48/1
f 7/45/1 5/46/1 6/47/1 8/48/1
f 9/45/1 7/46/1 8/47/1 10/48/1
f 11/45/1 9/46/1 10/47/1 12/48/1
f 13/45/1 11/46/1 12/47/1 14/48/1
f 15/45/1 13/46/1 14/47/1 16/48/1
f 17/45/1 15/46/1 16/47/1 18/48/1
f 19/49/1 17/50/1 18/51/1 20/52/1
f 21/53/1 22/54/1 2/55/1 1/56/1
f 30/57/1 29/58/1 17/59/1 19/60/1
f 33/61/1 31/62/1 21/63/1 23/64/1
f 36/61/1 35/62/1 25/63/1 26/64/1
f 39/61/1 38/62/1 28/63/1 29/64/1
f 56/65/1 55/66/1 45/67/1 46/68/1

